<svg xmlns="http://www.w3.org/2000/svg" xmlns:xlink="http://www.w3.org/1999/xlink" width="159.512mm" height="137.389mm" viewBox="4019 3007.3 628 540.9"><title></title><style type="text/css">
*[layerid="1"] {stroke:#000000;fill:#000000;}
*[layerid="2"] {stroke:#000000;fill:#000000;}
*[layerid="3"] {stroke:#000000;fill:#000000;}
*[layerid="4"] {stroke:#000000;fill:#000000;}
*[layerid="5"] {stroke:#000000;fill:#000000;}
*[layerid="6"] {stroke:#000000;fill:#000000;}
*[layerid="7"] {stroke:#000000;fill:#000000;}
*[layerid="8"] {stroke:#000000;fill:#000000;}
*[layerid="9"] {stroke:#000000;fill:#000000;}
*[layerid="10"] {stroke:#000000;fill:#000000;}
*[layerid="11"] {stroke:#000000;fill:#000000;}
*[layerid="12"] {stroke:#000000;fill:#000000;}
*[layerid="13"] {stroke:#000000;fill:#000000;}
*[layerid="14"] {stroke:#000000;fill:#000000;}
*[layerid="15"] {stroke:#000000;fill:#000000;}
*[layerid="19"] {stroke:#000000;fill:#000000;}
*[layerid="21"] {stroke:#000000;fill:#000000;}
*[layerid="22"] {stroke:#000000;fill:#000000;}
*[layerid="23"] {stroke:#000000;fill:#000000;}
*[layerid="24"] {stroke:#000000;fill:#000000;}
*[layerid="25"] {stroke:#000000;fill:#000000;}
*[layerid="26"] {stroke:#000000;fill:#000000;}
*[layerid="27"] {stroke:#000000;fill:#000000;}
*[layerid="28"] {stroke:#000000;fill:#000000;}
*[layerid="29"] {stroke:#000000;fill:#000000;}
*[layerid="30"] {stroke:#000000;fill:#000000;}
*[layerid="31"] {stroke:#000000;fill:#000000;}
*[layerid="32"] {stroke:#000000;fill:#000000;}
*[layerid="33"] {stroke:#000000;fill:#000000;}
*[layerid="34"] {stroke:#000000;fill:#000000;}
*[layerid="35"] {stroke:#000000;fill:#000000;}
*[layerid="36"] {stroke:#000000;fill:#000000;}
*[layerid="37"] {stroke:#000000;fill:#000000;}
*[layerid="38"] {stroke:#000000;fill:#000000;}
*[layerid="39"] {stroke:#000000;fill:#000000;}
*[layerid="40"] {stroke:#000000;fill:#000000;}
*[layerid="41"] {stroke:#000000;fill:#000000;}
*[layerid="42"] {stroke:#000000;fill:#000000;}
*[layerid="43"] {stroke:#000000;fill:#000000;}
*[layerid="44"] {stroke:#000000;fill:#000000;}
*[layerid="45"] {stroke:#000000;fill:#000000;}
*[layerid="46"] {stroke:#000000;fill:#000000;}
*[layerid="47"] {stroke:#000000;fill:#000000;}
*[layerid="48"] {stroke:#000000;fill:#000000;}
*[layerid="49"] {stroke:#000000;fill:#000000;}
*[layerid="50"] {stroke:#000000;fill:#000000;}
*[layerid="51"] {stroke:#000000;fill:#000000;}
*[layerid="52"] {stroke:#000000;fill:#000000;}
*[layerid="99"] {stroke:#000000;fill:#000000;}
*[layerid="100"] {stroke:#000000;fill:#000000;}
*[layerid="101"] {stroke:#000000;fill:#000000;}
*[layerid="Hole"] {stroke:#000000;fill:#000000;}
*[layerid="DRCError"] {stroke:#000000;fill:#000000;}
*[fill="none"] {fill: none;}
*[stroke="none"] {stroke: none;}
path, polyline, polygon, line {stroke-linecap:round;}
g[c_partid="part_pad"][layerid="1"] ellipse:not([c_etype="pad_outer"]) {fill:#000000;}
g[c_partid="part_pad"][layerid="1"] polygon:not([c_etype="pad_outer"]) {fill:#000000;}
g[c_partid="part_pad"][layerid="1"] polyline:not([c_etype="pad_outer"]) {stroke:#000000;}
g[c_partid="part_pad"][layerid="2"] ellipse:not([c_etype="pad_outer"]) {fill:#000000;}
g[c_partid="part_pad"][layerid="2"] polygon:not([c_etype="pad_outer"]) {fill:#000000;}
g[c_partid="part_pad"][layerid="2"] polyline:not([c_etype="pad_outer"]) {stroke:#000000;}
g[c_partid="part_pad"][layerid="11"] ellipse:not([c_etype="pad_outer"]) {fill:#000000;}
g[c_partid="part_pad"][layerid="11"] polygon:not([c_etype="pad_outer"]) {fill:#000000;}
g[c_partid="part_pad"][layerid="11"] polyline:not([c_etype="pad_outer"]) {stroke:#000000;}
g[c_partid="part_pad"][layerid="11"] circle {fill:#FFFFFF;}
g[c_partid="part_pad"][layerid="11"] > polyline:nth-of-type(2) {stroke:#FFFFFF;}
g[c_partid="part_pad"][layerid="11"][c_shape="ELLIPSE"]  polyline:nth-last-of-type(1) {stroke:#FFFFFF;}
g[c_partid="part_pad"][layerid="11"][c_shape="RECT"]  polyline:nth-last-of-type(1) {stroke:#FFFFFF;}
g[c_partid="part_pad"][layerid="11"][c_shape="POLYGON"]  polyline:nth-last-of-type(1) {stroke:#FFFFFF;}
g[c_partid="part_via"] > * + circle, #gCurParts g[c_partid="part_via"] > * + circle {fill:#FFFFFF;}
g[c_partid="part_pad"] > polygon[c_etype="pad_outer"], #gCurParts g[c_partid="part_pad"] > polygon[c_etype="pad_outer"] {stroke-linejoin: miter;stroke-miterlimit: 100;}
g[c_partid="part_hole"] > circle {fill: #FFFFFF;}path, polyline, polygon {stroke-linejoin:round;}
rect, circle, ellipse, polyline, line, polygon, path {shape-rendering:crispEdges;}
</style>
<rect x="4019" y="3007.3" width="628" height="540.9" fill="#FFFFFF" stroke="none"/><polyline points="4030 3017.5 4506.21 3018.5 4636.94 3018.5" stroke-width="1"  stroke-linecap="round" fill="none" layerid="10" net="" id="gge3632" locked="0" /><polyline points="4636 3538.1731 4029 3538" stroke-width="1"  stroke-linecap="round" fill="none" layerid="10" net="" id="gge3960" locked="0" /><polyline points="4029.25 3537.75 4029.75 3017.25" stroke-width="1"  stroke-linecap="round" fill="none" layerid="10" net="" id="gge3633" locked="0" /><polyline points="4637 3018.5 4636 3538.1731" stroke-width="1"  stroke-linecap="round" fill="none" layerid="10" net="" id="gge145969" locked="0" /><circle cx="4127.008" cy="3073.291" r="0.591" stroke-width="1.1811" fill="none" layerid="12" id="gge180" locked="0"  /><circle cx="4213.622" cy="3073.291" r="0.591" stroke-width="1.1811" fill="none" layerid="12" id="gge213" locked="0"  /><circle cx="4398.662" cy="3072.311" r="0.591" stroke-width="1.1811" fill="none" layerid="12" id="gge1497" locked="0"  /><circle cx="4312.048" cy="3073.291" r="0.591" stroke-width="1.1811" fill="none" layerid="12" id="gge1592" locked="0"  /><circle cx="4497.087" cy="3073.291" r="0.591" stroke-width="1.1811" fill="none" layerid="12" id="gge1625" locked="0"  /><circle cx="4583.701" cy="3073.291" r="0.591" stroke-width="1.1811" fill="none" layerid="12" id="gge1720" locked="0"  /><path d="M 4125.6693 3088.9606 L 4125.6693 3074.1575 L 4124.5669 3074.1575 L 4124.5669 3088.9606 Z" stroke-width="0"   net="" type="solid" layerid="12" id="gge181" locked="0" c_teardrop="" c_targetpad="" c_targetwire="" /><path d="M 4136.7716 3088.5669 A 9.6783 9.6783 0 0 0 4139.6063 3081.7233 L 4139.6063 3081.559 L 4139.6063 3081.316 A 9.6783 9.6783 0 0 0 4136.7716 3074.4724 Z" stroke-width="0"   net="" type="solid" layerid="12" id="gge182" locked="0" c_teardrop="" c_targetpad="" c_targetwire="" /><path d="M 4212.2835 3088.9606 L 4212.2835 3074.1575 L 4211.1811 3074.1575 L 4211.1811 3088.9606 Z" stroke-width="0"   net="" type="solid" layerid="12" id="gge214" locked="0" c_teardrop="" c_targetpad="" c_targetwire="" /><path d="M 4223.3858 3088.5669 A 9.6783 9.6783 0 0 0 4226.2205 3081.7233 L 4226.2205 3081.559 L 4226.2205 3081.316 A 9.6783 9.6783 0 0 0 4223.3858 3074.4724 Z" stroke-width="0"   net="" type="solid" layerid="12" id="gge215" locked="0" c_teardrop="" c_targetpad="" c_targetwire="" /><path d="M 4112.1142 3124.4134 L 4112.1142 3109.4134 L 4113.1142 3109.4134 L 4113.1142 3124.4134 Z" stroke-width="0"   net="" type="solid" layerid="12" id="gge246" locked="0" c_teardrop="" c_targetpad="" c_targetwire="" /><path d="M 4198.7283 3124.4134 L 4198.7283 3109.4134 L 4199.7283 3109.4134 L 4199.7283 3124.4134 Z" stroke-width="0"   net="" type="solid" layerid="12" id="gge277" locked="0" c_teardrop="" c_targetpad="" c_targetwire="" /><path d="M 4397.3229 3087.9803 L 4397.3229 3073.1772 L 4396.2205 3073.1772 L 4396.2205 3087.9803 Z" stroke-width="0"   net="" type="solid" layerid="12" id="gge1498" locked="0" c_teardrop="" c_targetpad="" c_targetwire="" /><path d="M 4408.4252 3087.5866 A 9.6783 9.6783 0 0 0 4411.2599 3080.743 L 4411.2599 3080.5787 L 4411.2599 3080.3357 A 9.6783 9.6783 0 0 0 4408.4252 3073.4921 Z" stroke-width="0"   net="" type="solid" layerid="12" id="gge1499" locked="0" c_teardrop="" c_targetpad="" c_targetwire="" /><path d="M 4383.7677 3124.4134 L 4383.7677 3109.4134 L 4384.7677 3109.4134 L 4384.7677 3124.4134 Z" stroke-width="0"   net="" type="solid" layerid="12" id="gge1530" locked="0" c_teardrop="" c_targetpad="" c_targetwire="" /><path d="M 4297.1535 3124.4134 L 4297.1535 3109.4134 L 4298.1535 3109.4134 L 4298.1535 3124.4134 Z" stroke-width="0"   net="" type="solid" layerid="12" id="gge1561" locked="0" c_teardrop="" c_targetpad="" c_targetwire="" /><path d="M 4310.7087 3088.9606 L 4310.7087 3074.1575 L 4309.6063 3074.1575 L 4309.6063 3088.9606 Z" stroke-width="0"   net="" type="solid" layerid="12" id="gge1593" locked="0" c_teardrop="" c_targetpad="" c_targetwire="" /><path d="M 4321.811 3088.5669 A 9.6783 9.6783 0 0 0 4324.6457 3081.7233 L 4324.6457 3081.559 L 4324.6457 3081.316 A 9.6783 9.6783 0 0 0 4321.811 3074.4724 Z" stroke-width="0"   net="" type="solid" layerid="12" id="gge1594" locked="0" c_teardrop="" c_targetpad="" c_targetwire="" /><path d="M 4495.7481 3088.9606 L 4495.7481 3074.1575 L 4494.6457 3074.1575 L 4494.6457 3088.9606 Z" stroke-width="0"   net="" type="solid" layerid="12" id="gge1626" locked="0" c_teardrop="" c_targetpad="" c_targetwire="" /><path d="M 4506.8504 3088.5669 A 9.6783 9.6783 0 0 0 4509.6851 3081.7233 L 4509.6851 3081.559 L 4509.6851 3081.316 A 9.6783 9.6783 0 0 0 4506.8504 3074.4724 Z" stroke-width="0"   net="" type="solid" layerid="12" id="gge1627" locked="0" c_teardrop="" c_targetpad="" c_targetwire="" /><path d="M 4482.1929 3124.4134 L 4482.1929 3109.4134 L 4483.1929 3109.4134 L 4483.1929 3124.4134 Z" stroke-width="0"   net="" type="solid" layerid="12" id="gge1658" locked="0" c_teardrop="" c_targetpad="" c_targetwire="" /><path d="M 4568.8071 3124.4134 L 4568.8071 3109.4134 L 4569.8071 3109.4134 L 4569.8071 3124.4134 Z" stroke-width="0"   net="" type="solid" layerid="12" id="gge1689" locked="0" c_teardrop="" c_targetpad="" c_targetwire="" /><path d="M 4582.3622 3088.9606 L 4582.3622 3074.1575 L 4581.2598 3074.1575 L 4581.2598 3088.9606 Z" stroke-width="0"   net="" type="solid" layerid="12" id="gge1721" locked="0" c_teardrop="" c_targetpad="" c_targetwire="" /><path d="M 4593.4645 3088.5669 A 9.6783 9.6783 0 0 0 4596.2992 3081.7233 L 4596.2992 3081.559 L 4596.2992 3081.316 A 9.6783 9.6783 0 0 0 4593.4645 3074.4724 Z" stroke-width="0"   net="" type="solid" layerid="12" id="gge1722" locked="0" c_teardrop="" c_targetpad="" c_targetwire="" /></svg>