<svg xmlns="http://www.w3.org/2000/svg" xmlns:xlink="http://www.w3.org/1999/xlink" width="66.446mm" height="46.076mm" viewBox="4040 3036.4 261.6 181.4"><title></title><style type="text/css">
*[layerid="1"] {stroke:#000000;fill:#000000;}
*[layerid="2"] {stroke:#000000;fill:#000000;}
*[layerid="3"] {stroke:#000000;fill:#000000;}
*[layerid="4"] {stroke:#000000;fill:#000000;}
*[layerid="5"] {stroke:#000000;fill:#000000;}
*[layerid="6"] {stroke:#000000;fill:#000000;}
*[layerid="7"] {stroke:#000000;fill:#000000;}
*[layerid="8"] {stroke:#000000;fill:#000000;}
*[layerid="9"] {stroke:#000000;fill:#000000;}
*[layerid="10"] {stroke:#000000;fill:#000000;}
*[layerid="11"] {stroke:#000000;fill:#000000;}
*[layerid="12"] {stroke:#000000;fill:#000000;}
*[layerid="13"] {stroke:#000000;fill:#000000;}
*[layerid="14"] {stroke:#000000;fill:#000000;}
*[layerid="15"] {stroke:#000000;fill:#000000;}
*[layerid="19"] {stroke:#000000;fill:#000000;}
*[layerid="21"] {stroke:#000000;fill:#000000;}
*[layerid="22"] {stroke:#000000;fill:#000000;}
*[layerid="23"] {stroke:#000000;fill:#000000;}
*[layerid="24"] {stroke:#000000;fill:#000000;}
*[layerid="25"] {stroke:#000000;fill:#000000;}
*[layerid="26"] {stroke:#000000;fill:#000000;}
*[layerid="27"] {stroke:#000000;fill:#000000;}
*[layerid="28"] {stroke:#000000;fill:#000000;}
*[layerid="29"] {stroke:#000000;fill:#000000;}
*[layerid="30"] {stroke:#000000;fill:#000000;}
*[layerid="31"] {stroke:#000000;fill:#000000;}
*[layerid="32"] {stroke:#000000;fill:#000000;}
*[layerid="33"] {stroke:#000000;fill:#000000;}
*[layerid="34"] {stroke:#000000;fill:#000000;}
*[layerid="35"] {stroke:#000000;fill:#000000;}
*[layerid="36"] {stroke:#000000;fill:#000000;}
*[layerid="37"] {stroke:#000000;fill:#000000;}
*[layerid="38"] {stroke:#000000;fill:#000000;}
*[layerid="39"] {stroke:#000000;fill:#000000;}
*[layerid="40"] {stroke:#000000;fill:#000000;}
*[layerid="41"] {stroke:#000000;fill:#000000;}
*[layerid="42"] {stroke:#000000;fill:#000000;}
*[layerid="43"] {stroke:#000000;fill:#000000;}
*[layerid="44"] {stroke:#000000;fill:#000000;}
*[layerid="45"] {stroke:#000000;fill:#000000;}
*[layerid="46"] {stroke:#000000;fill:#000000;}
*[layerid="47"] {stroke:#000000;fill:#000000;}
*[layerid="48"] {stroke:#000000;fill:#000000;}
*[layerid="49"] {stroke:#000000;fill:#000000;}
*[layerid="50"] {stroke:#000000;fill:#000000;}
*[layerid="51"] {stroke:#000000;fill:#000000;}
*[layerid="52"] {stroke:#000000;fill:#000000;}
*[layerid="99"] {stroke:#000000;fill:#000000;}
*[layerid="100"] {stroke:#000000;fill:#000000;}
*[layerid="101"] {stroke:#000000;fill:#000000;}
*[layerid="Hole"] {stroke:#000000;fill:#000000;}
*[layerid="DRCError"] {stroke:#000000;fill:#000000;}
*[fill="none"] {fill: none;}
*[stroke="none"] {stroke: none;}
path, polyline, polygon, line {stroke-linecap:round;}
g[c_partid="part_pad"][layerid="1"] ellipse:not([c_etype="pad_outer"]) {fill:#000000;}
g[c_partid="part_pad"][layerid="1"] polygon:not([c_etype="pad_outer"]) {fill:#000000;}
g[c_partid="part_pad"][layerid="1"] polyline:not([c_etype="pad_outer"]) {stroke:#000000;}
g[c_partid="part_pad"][layerid="2"] ellipse:not([c_etype="pad_outer"]) {fill:#000000;}
g[c_partid="part_pad"][layerid="2"] polygon:not([c_etype="pad_outer"]) {fill:#000000;}
g[c_partid="part_pad"][layerid="2"] polyline:not([c_etype="pad_outer"]) {stroke:#000000;}
g[c_partid="part_pad"][layerid="11"] ellipse:not([c_etype="pad_outer"]) {fill:#000000;}
g[c_partid="part_pad"][layerid="11"] polygon:not([c_etype="pad_outer"]) {fill:#000000;}
g[c_partid="part_pad"][layerid="11"] polyline:not([c_etype="pad_outer"]) {stroke:#000000;}
g[c_partid="part_pad"][layerid="11"] circle {fill:#FFFFFF;}
g[c_partid="part_pad"][layerid="11"] > polyline:nth-of-type(2) {stroke:#FFFFFF;}
g[c_partid="part_pad"][layerid="11"][c_shape="ELLIPSE"]  polyline:nth-last-of-type(1) {stroke:#FFFFFF;}
g[c_partid="part_pad"][layerid="11"][c_shape="RECT"]  polyline:nth-last-of-type(1) {stroke:#FFFFFF;}
g[c_partid="part_pad"][layerid="11"][c_shape="POLYGON"]  polyline:nth-last-of-type(1) {stroke:#FFFFFF;}
g[c_partid="part_via"] > * + circle, #gCurParts g[c_partid="part_via"] > * + circle {fill:#FFFFFF;}
g[c_partid="part_pad"] > polygon[c_etype="pad_outer"], #gCurParts g[c_partid="part_pad"] > polygon[c_etype="pad_outer"] {stroke-linejoin: miter;stroke-miterlimit: 100;}
g[c_partid="part_hole"] > circle {fill: #FFFFFF;}path, polyline, polygon {stroke-linejoin:round;}
rect, circle, ellipse, polyline, line, polygon, path {shape-rendering:crispEdges;}
</style>
<rect x="4040" y="3036.4" width="261.6" height="181.4" fill="#FFFFFF" stroke="none"/><polyline points="4224.1621 3069.9241 4221.0125 3069.9241" stroke-width="1"  stroke-linecap="round" fill="none" layerid="3" net="" id="gge7" locked="0" /><polyline points="4222.5873 3068.3493 4222.5873 3071.4989" stroke-width="1"  stroke-linecap="round" fill="none" layerid="3" net="" id="gge8" locked="0" /><polyline points="4070.1134 3068.375 4070.1134 3061.575" stroke-width="1"  stroke-linecap="round" fill="none" layerid="3" net="" id="gge29" locked="0" /><polyline points="4073.5134 3065.075 4066.9134 3065.075" stroke-width="1"  stroke-linecap="round" fill="none" layerid="3" net="" id="gge30" locked="0" /><polyline points="4179.99 3143.01 4159.99 3143.01 4159.99 3153.01 4179.99 3153.01 4179.99 3143.01" stroke-width="0.79"  stroke-linecap="round" fill="none" layerid="3" net="" id="gge51" locked="0" /><polyline points="4218.6613 3132.3308 4201.3385 3132.3308" stroke-width="1"  stroke-linecap="round" fill="none" layerid="3" net="" id="gge74" locked="0" /><polyline points="4218.6613 3123.6692 4201.3385 3123.6692" stroke-width="1"  stroke-linecap="round" fill="none" layerid="3" net="" id="gge75" locked="0" /><polyline points="4218.6613 3132.3308 4218.6613 3123.6692" stroke-width="1"  stroke-linecap="round" fill="none" layerid="3" net="" id="gge76" locked="0" /><polyline points="4201.3385 3132.3308 4201.3385 3123.6692" stroke-width="1"  stroke-linecap="round" fill="none" layerid="3" net="" id="gge77" locked="0" /><polyline points="4214.963 3132.3308 4214.963 3123.6692" stroke-width="1"  stroke-linecap="round" fill="none" layerid="3" net="" id="gge78" locked="0" /><polyline points="4216.4596 3113.5118 4216.4596 3102.4882" stroke-width="1"  stroke-linecap="round" fill="none" layerid="3" net="" id="gge101" locked="0" /><polyline points="4220.2362 3113.5118 4220.2362 3102.4882" stroke-width="1"  stroke-linecap="round" fill="none" layerid="3" net="" id="gge102" locked="0" /><polyline points="4220.2362 3102.4882 4199.7638 3102.4882" stroke-width="1"  stroke-linecap="round" fill="none" layerid="3" net="" id="gge103" locked="0" /><polyline points="4199.7638 3113.5118 4199.7638 3102.4882" stroke-width="1"  stroke-linecap="round" fill="none" layerid="3" net="" id="gge104" locked="0" /><polyline points="4220.2362 3113.5118 4199.7638 3113.5118" stroke-width="1"  stroke-linecap="round" fill="none" layerid="3" net="" id="gge105" locked="0" /><polyline points="4227.4 3186.9 4227.4 3169.1" stroke-width="1"  stroke-linecap="round" fill="none" layerid="3" net="" id="gge128" locked="0" /><polyline points="4227.4 3169.1 4272.6 3169.1" stroke-width="1"  stroke-linecap="round" fill="none" layerid="3" net="" id="gge129" locked="0" /><polyline points="4272.6 3169.1 4272.6 3186.9" stroke-width="1"  stroke-linecap="round" fill="none" layerid="3" net="" id="gge130" locked="0" /><polyline points="4272.6 3186.9 4227.4 3186.9" stroke-width="1"  stroke-linecap="round" fill="none" layerid="3" net="" id="gge131" locked="0" /><polyline points="4122.1081 3083.3 4137.8915 3083.2985" stroke-width="1"  stroke-linecap="round" fill="none" layerid="3" net="" id="gge154" locked="0" /><polyline points="4161.5512 3066.5666 4203.2912 3066.5666 4203.2912 3085.4566 4161.5512 3085.4566 4161.5512 3066.5866 4161.5512 3066.5666" stroke-width="1"  stroke-linecap="round" fill="none" layerid="3" net="" id="gge191" locked="0" /><polyline points="4203.2872 3068.9253 4161.5552 3068.9253" stroke-width="1"  stroke-linecap="round" fill="none" layerid="3" net="" id="gge192" locked="0" /><polyline points="4157.6 3202.7 4157.6 3193.3" stroke-width="1"  stroke-linecap="round" fill="none" layerid="3" net="" id="gge217" locked="0" /><polyline points="4157.6 3193.3 4182.4 3193.3" stroke-width="1"  stroke-linecap="round" fill="none" layerid="3" net="" id="gge218" locked="0" /><polyline points="4182.4 3193.3 4182.4 3202.7" stroke-width="1"  stroke-linecap="round" fill="none" layerid="3" net="" id="gge219" locked="0" /><polyline points="4182.4 3202.7 4157.6 3202.7" stroke-width="1"  stroke-linecap="round" fill="none" layerid="3" net="" id="gge220" locked="0" /><polyline points="4104.7 3140.4 4095.3 3140.4" stroke-width="1"  stroke-linecap="round" fill="none" layerid="3" net="" id="gge245" locked="0" /><polyline points="4095.3 3140.4 4095.3 3115.6" stroke-width="1"  stroke-linecap="round" fill="none" layerid="3" net="" id="gge246" locked="0" /><polyline points="4095.3 3115.6 4104.7 3115.6" stroke-width="1"  stroke-linecap="round" fill="none" layerid="3" net="" id="gge247" locked="0" /><polyline points="4104.7 3115.6 4104.7 3140.4" stroke-width="1"  stroke-linecap="round" fill="none" layerid="3" net="" id="gge248" locked="0" /><polyline points="4124.7 3140.4 4115.3 3140.4" stroke-width="1"  stroke-linecap="round" fill="none" layerid="3" net="" id="gge273" locked="0" /><polyline points="4115.3 3140.4 4115.3 3115.6" stroke-width="1"  stroke-linecap="round" fill="none" layerid="3" net="" id="gge274" locked="0" /><polyline points="4115.3 3115.6 4124.7 3115.6" stroke-width="1"  stroke-linecap="round" fill="none" layerid="3" net="" id="gge275" locked="0" /><polyline points="4124.7 3115.6 4124.7 3140.4" stroke-width="1"  stroke-linecap="round" fill="none" layerid="3" net="" id="gge276" locked="0" /><polyline points="4182.4 3163.3 4182.4 3172.7" stroke-width="1"  stroke-linecap="round" fill="none" layerid="3" net="" id="gge301" locked="0" /><polyline points="4182.4 3172.7 4157.6 3172.7" stroke-width="1"  stroke-linecap="round" fill="none" layerid="3" net="" id="gge302" locked="0" /><polyline points="4157.6 3172.7 4157.6 3163.3" stroke-width="1"  stroke-linecap="round" fill="none" layerid="3" net="" id="gge303" locked="0" /><polyline points="4157.6 3163.3 4182.4 3163.3" stroke-width="1"  stroke-linecap="round" fill="none" layerid="3" net="" id="gge304" locked="0" /><polyline points="4132.4 3163.3 4132.4 3172.7" stroke-width="1"  stroke-linecap="round" fill="none" layerid="3" net="" id="gge329" locked="0" /><polyline points="4132.4 3172.7 4107.6 3172.7" stroke-width="1"  stroke-linecap="round" fill="none" layerid="3" net="" id="gge330" locked="0" /><polyline points="4107.6 3172.7 4107.6 3163.3" stroke-width="1"  stroke-linecap="round" fill="none" layerid="3" net="" id="gge331" locked="0" /><polyline points="4107.6 3163.3 4132.4 3163.3" stroke-width="1"  stroke-linecap="round" fill="none" layerid="3" net="" id="gge332" locked="0" /><polyline points="4140.5512 3115.4803 4140.55 3115.5 4140.55 3107.57 4179.53 3107.57 4179.53 3128.43 4140.55 3128.43 4140.55 3120.5 4140.5512 3120.5197" stroke-width="0.7874"  stroke-linecap="round" fill="none" layerid="3" net="" id="gge357" locked="0" /><polyline points="4240.472 3083.748 4240.472 3052.252 4279.842 3052.252 4279.842 3083.748 4240.472 3083.748" stroke-width="1"  stroke-linecap="round" fill="none" layerid="3" net="" id="gge428" locked="0" /><polyline points="4060.472 3203.748 4060.472 3172.252 4099.842 3172.252 4099.842 3203.748 4060.472 3203.748" stroke-width="1"  stroke-linecap="round" fill="none" layerid="3" net="" id="gge445" locked="0" /><g c_partid="part_pcbtext" c_etype="" c_origin="4239.2894,3076.2445" c_rotation="90" c_mirror="" id="gge3" locked="0" layerid="3" c_shapetype="group" display="none"><path c_fontsize="4.5" c_fontfamily="" c_text="1u" d="M 4235.5694 3076.2445 L 4235.3594 3075.8345 L 4234.7494 3075.2245 L 4239.0394 3075.2245 M 4236.1794 3073.8745 L 4238.2294 3073.8745 L 4238.8394 3073.6645 L 4239.0394 3073.2545 L 4239.0394 3072.6445 L 4238.8394 3072.2345 L 4238.2294 3071.6245 M 4236.1794 3071.6245 L 4239.0394 3071.6245" fill="none"  stroke-width="0.6" c_note="note_name" /></g><g c_partid="part_pcbtext" c_etype="" c_origin="4227.4992,3071.6246" c_rotation="270" c_mirror="" id="gge5" locked="0" layerid="3" c_shapetype="group" ><path c_fontsize="4.5" c_fontfamily="" c_text="C1" d="M 4231.0192 3074.6946 L 4231.4292 3074.4846 L 4231.8392 3074.0746 L 4232.0392 3073.6746 L 4232.0392 3072.8546 L 4231.8392 3072.4446 L 4231.4292 3072.0346 L 4231.0192 3071.8246 L 4230.3992 3071.6246 L 4229.3792 3071.6246 L 4228.7692 3071.8246 L 4228.3592 3072.0346 L 4227.9492 3072.4446 L 4227.7492 3072.8546 L 4227.7492 3073.6746 L 4227.9492 3074.0746 L 4228.3592 3074.4846 L 4228.7692 3074.6946 M 4231.2192 3076.0446 L 4231.4292 3076.4546 L 4232.0392 3077.0646 L 4227.7492 3077.0646" fill="none"  stroke-width="0.6" c_note="note_pre" /></g><g c_partid="part_pcbtext" c_etype="" c_origin="4079.1134,3046.375" c_rotation="0" c_mirror="" id="gge25" locked="0" layerid="3" c_shapetype="group" display="none"><path c_fontsize="4.5" c_fontfamily="" c_text="1u" d="M 4079.1134 3042.655 L 4079.5234 3042.445 L 4080.1334 3041.835 L 4080.1334 3046.125 M 4081.4834 3043.265 L 4081.4834 3045.315 L 4081.6934 3045.925 L 4082.1034 3046.125 L 4082.7134 3046.125 L 4083.1234 3045.925 L 4083.7334 3045.315 M 4083.7334 3043.265 L 4083.7334 3046.125" fill="none"  stroke-width="0.6" c_note="note_name" /></g><g c_partid="part_pcbtext" c_etype="" c_origin="4079.1134,3053.375" c_rotation="0" c_mirror="" id="gge27" locked="0" layerid="3" c_shapetype="group" ><path c_fontsize="4.5" c_fontfamily="" c_text="C2" d="M 4082.1834 3049.855 L 4081.9734 3049.445 L 4081.5634 3049.035 L 4081.1634 3048.835 L 4080.3434 3048.835 L 4079.9334 3049.035 L 4079.5234 3049.445 L 4079.3134 3049.855 L 4079.1134 3050.475 L 4079.1134 3051.495 L 4079.3134 3052.105 L 4079.5234 3052.515 L 4079.9334 3052.925 L 4080.3434 3053.125 L 4081.1634 3053.125 L 4081.5634 3052.925 L 4081.9734 3052.515 L 4082.1834 3052.105 M 4083.7334 3049.855 L 4083.7334 3049.655 L 4083.9434 3049.245 L 4084.1434 3049.035 L 4084.5534 3048.835 L 4085.3734 3048.835 L 4085.7834 3049.035 L 4085.9834 3049.245 L 4086.1934 3049.655 L 4086.1934 3050.065 L 4085.9834 3050.475 L 4085.5734 3051.085 L 4083.5334 3053.125 L 4086.3934 3053.125" fill="none"  stroke-width="0.6" c_note="note_pre" /></g><g c_partid="part_pcbtext" c_etype="" c_origin="4169.1,3133.7" c_rotation="0" c_mirror="" id="gge47" locked="0" layerid="3" c_shapetype="group" display="none"><path c_fontsize="4.5" c_fontfamily="" c_text="1u" d="M 4169.1 3129.98 L 4169.51 3129.77 L 4170.12 3129.16 L 4170.12 3133.45 M 4171.47 3130.59 L 4171.47 3132.64 L 4171.68 3133.25 L 4172.09 3133.45 L 4172.7 3133.45 L 4173.11 3133.25 L 4173.72 3132.64 M 4173.72 3130.59 L 4173.72 3133.45" fill="none"  stroke-width="0.6" c_note="note_name" /></g><g c_partid="part_pcbtext" c_etype="" c_origin="4169.1,3140.7" c_rotation="0" c_mirror="" id="gge49" locked="0" layerid="3" c_shapetype="group" ><path c_fontsize="4.5" c_fontfamily="" c_text="C3" d="M 4172.17 3137.18 L 4171.96 3136.77 L 4171.55 3136.36 L 4171.15 3136.16 L 4170.33 3136.16 L 4169.92 3136.36 L 4169.51 3136.77 L 4169.3 3137.18 L 4169.1 3137.8 L 4169.1 3138.82 L 4169.3 3139.43 L 4169.51 3139.84 L 4169.92 3140.25 L 4170.33 3140.45 L 4171.15 3140.45 L 4171.55 3140.25 L 4171.96 3139.84 L 4172.17 3139.43 M 4173.93 3136.16 L 4176.18 3136.16 L 4174.95 3137.8 L 4175.56 3137.8 L 4175.97 3138 L 4176.18 3138.2 L 4176.38 3138.82 L 4176.38 3139.23 L 4176.18 3139.84 L 4175.77 3140.25 L 4175.15 3140.45 L 4174.54 3140.45 L 4173.93 3140.25 L 4173.72 3140.05 L 4173.52 3139.64" fill="none"  stroke-width="0.6" c_note="note_pre" /></g><g c_partid="part_pcbtext" c_etype="" c_origin="4209,3115" c_rotation="0" c_mirror="" id="gge70" locked="0" layerid="3" c_shapetype="group" display="none"><path c_fontsize="4.5" c_fontfamily="" c_text="1N4148" d="M 4209 3111.28 L 4209.41 3111.07 L 4210.02 3110.46 L 4210.02 3114.75 M 4211.37 3110.46 L 4211.37 3114.75 M 4211.37 3110.46 L 4214.24 3114.75 M 4214.24 3110.46 L 4214.24 3114.75 M 4217.63 3110.46 L 4215.59 3113.32 L 4218.65 3113.32 M 4217.63 3110.46 L 4217.63 3114.75 M 4220 3111.28 L 4220.41 3111.07 L 4221.03 3110.46 L 4221.03 3114.75 M 4224.42 3110.46 L 4222.38 3113.32 L 4225.45 3113.32 M 4224.42 3110.46 L 4224.42 3114.75 M 4227.82 3110.46 L 4227.2 3110.66 L 4227 3111.07 L 4227 3111.48 L 4227.2 3111.89 L 4227.61 3112.1 L 4228.43 3112.3 L 4229.05 3112.5 L 4229.45 3112.91 L 4229.66 3113.32 L 4229.66 3113.94 L 4229.45 3114.35 L 4229.25 3114.55 L 4228.64 3114.75 L 4227.82 3114.75 L 4227.2 3114.55 L 4227 3114.35 L 4226.8 3113.94 L 4226.8 3113.32 L 4227 3112.91 L 4227.41 3112.5 L 4228.02 3112.3 L 4228.84 3112.1 L 4229.25 3111.89 L 4229.45 3111.48 L 4229.45 3111.07 L 4229.25 3110.66 L 4228.64 3110.46 L 4227.82 3110.46" fill="none"  stroke-width="0.6" c_note="note_name" /></g><g c_partid="part_pcbtext" c_etype="" c_origin="4209,3122" c_rotation="0" c_mirror="" id="gge72" locked="0" layerid="3" c_shapetype="group" ><path c_fontsize="4.5" c_fontfamily="" c_text="D1" d="M 4209 3117.46 L 4209 3121.75 M 4209 3117.46 L 4210.43 3117.46 L 4211.05 3117.66 L 4211.45 3118.07 L 4211.66 3118.48 L 4211.86 3119.1 L 4211.86 3120.12 L 4211.66 3120.73 L 4211.45 3121.14 L 4211.05 3121.55 L 4210.43 3121.75 L 4209 3121.75 M 4213.21 3118.28 L 4213.62 3118.07 L 4214.24 3117.46 L 4214.24 3121.75" fill="none"  stroke-width="0.6" c_note="note_pre" /></g><g c_partid="part_pcbtext" c_etype="" c_origin="4209.39,3093.5" c_rotation="0" c_mirror="" id="gge97" locked="0" layerid="3" c_shapetype="group" display="none"><path c_fontsize="4.5" c_fontfamily="" c_text="UF4007_C84067" d="M 4209.39 3088.96 L 4209.39 3092.03 L 4209.59 3092.64 L 4210 3093.05 L 4210.62 3093.25 L 4211.03 3093.25 L 4211.64 3093.05 L 4212.05 3092.64 L 4212.25 3092.03 L 4212.25 3088.96 M 4213.6 3088.96 L 4213.6 3093.25 M 4213.6 3088.96 L 4216.26 3088.96 M 4213.6 3091 L 4215.24 3091 M 4219.66 3088.96 L 4217.61 3091.82 L 4220.68 3091.82 M 4219.66 3088.96 L 4219.66 3093.25 M 4223.26 3088.96 L 4222.64 3089.16 L 4222.24 3089.78 L 4222.03 3090.8 L 4222.03 3091.41 L 4222.24 3092.44 L 4222.64 3093.05 L 4223.26 3093.25 L 4223.67 3093.25 L 4224.28 3093.05 L 4224.69 3092.44 L 4224.89 3091.41 L 4224.89 3090.8 L 4224.69 3089.78 L 4224.28 3089.16 L 4223.67 3088.96 L 4223.26 3088.96 M 4227.47 3088.96 L 4226.86 3089.16 L 4226.45 3089.78 L 4226.24 3090.8 L 4226.24 3091.41 L 4226.45 3092.44 L 4226.86 3093.05 L 4227.47 3093.25 L 4227.88 3093.25 L 4228.49 3093.05 L 4228.9 3092.44 L 4229.11 3091.41 L 4229.11 3090.8 L 4228.9 3089.78 L 4228.49 3089.16 L 4227.88 3088.96 L 4227.47 3088.96 M 4233.32 3088.96 L 4231.28 3093.25 M 4230.46 3088.96 L 4233.32 3088.96 M 4234.67 3094.69 L 4238.35 3094.69 M 4242.77 3089.98 L 4242.57 3089.57 L 4242.16 3089.16 L 4241.75 3088.96 L 4240.93 3088.96 L 4240.52 3089.16 L 4240.11 3089.57 L 4239.91 3089.98 L 4239.7 3090.6 L 4239.7 3091.62 L 4239.91 3092.23 L 4240.11 3092.64 L 4240.52 3093.05 L 4240.93 3093.25 L 4241.75 3093.25 L 4242.16 3093.05 L 4242.57 3092.64 L 4242.77 3092.23 M 4245.14 3088.96 L 4244.53 3089.16 L 4244.33 3089.57 L 4244.33 3089.98 L 4244.53 3090.39 L 4244.94 3090.6 L 4245.76 3090.8 L 4246.37 3091 L 4246.78 3091.41 L 4246.99 3091.82 L 4246.99 3092.44 L 4246.78 3092.85 L 4246.58 3093.05 L 4245.96 3093.25 L 4245.14 3093.25 L 4244.53 3093.05 L 4244.33 3092.85 L 4244.12 3092.44 L 4244.12 3091.82 L 4244.33 3091.41 L 4244.74 3091 L 4245.35 3090.8 L 4246.17 3090.6 L 4246.58 3090.39 L 4246.78 3089.98 L 4246.78 3089.57 L 4246.58 3089.16 L 4245.96 3088.96 L 4245.14 3088.96 M 4250.38 3088.96 L 4248.34 3091.82 L 4251.4 3091.82 M 4250.38 3088.96 L 4250.38 3093.25 M 4253.98 3088.96 L 4253.37 3089.16 L 4252.96 3089.78 L 4252.75 3090.8 L 4252.75 3091.41 L 4252.96 3092.44 L 4253.37 3093.05 L 4253.98 3093.25 L 4254.39 3093.25 L 4255 3093.05 L 4255.41 3092.44 L 4255.62 3091.41 L 4255.62 3090.8 L 4255.41 3089.78 L 4255 3089.16 L 4254.39 3088.96 L 4253.98 3088.96 M 4259.42 3089.57 L 4259.22 3089.16 L 4258.6 3088.96 L 4258.19 3088.96 L 4257.58 3089.16 L 4257.17 3089.78 L 4256.97 3090.8 L 4256.97 3091.82 L 4257.17 3092.64 L 4257.58 3093.05 L 4258.19 3093.25 L 4258.4 3093.25 L 4259.01 3093.05 L 4259.42 3092.64 L 4259.63 3092.03 L 4259.63 3091.82 L 4259.42 3091.21 L 4259.01 3090.8 L 4258.4 3090.6 L 4258.19 3090.6 L 4257.58 3090.8 L 4257.17 3091.21 L 4256.97 3091.82 M 4263.84 3088.96 L 4261.79 3093.25 M 4260.98 3088.96 L 4263.84 3088.96" fill="none"  stroke-width="0.6" c_note="note_name" /></g><g c_partid="part_pcbtext" c_etype="" c_origin="4209.39,3100.5" c_rotation="0" c_mirror="" id="gge99" locked="0" layerid="3" c_shapetype="group" ><path c_fontsize="4.5" c_fontfamily="" c_text="D3" d="M 4209.39 3095.96 L 4209.39 3100.25 M 4209.39 3095.96 L 4210.82 3095.96 L 4211.44 3096.16 L 4211.84 3096.57 L 4212.05 3096.98 L 4212.25 3097.6 L 4212.25 3098.62 L 4212.05 3099.23 L 4211.84 3099.64 L 4211.44 3100.05 L 4210.82 3100.25 L 4209.39 3100.25 M 4214.01 3095.96 L 4216.26 3095.96 L 4215.04 3097.6 L 4215.65 3097.6 L 4216.06 3097.8 L 4216.26 3098 L 4216.47 3098.62 L 4216.47 3099.03 L 4216.26 3099.64 L 4215.85 3100.05 L 4215.24 3100.25 L 4214.63 3100.25 L 4214.01 3100.05 L 4213.81 3099.85 L 4213.6 3099.44" fill="none"  stroke-width="0.6" c_note="note_pre" /></g><g c_partid="part_pcbtext" c_etype="" c_origin="4250,3160" c_rotation="0" c_mirror="" id="gge124" locked="0" layerid="3" c_shapetype="group" display="none"><path c_fontsize="4.5" c_fontfamily="" c_text="1m" d="M 4250 3156.28 L 4250.41 3156.07 L 4251.02 3155.46 L 4251.02 3159.75 M 4252.37 3156.89 L 4252.37 3159.75 M 4252.37 3157.71 L 4252.99 3157.1 L 4253.4 3156.89 L 4254.01 3156.89 L 4254.42 3157.1 L 4254.62 3157.71 L 4254.62 3159.75 M 4254.62 3157.71 L 4255.24 3157.1 L 4255.65 3156.89 L 4256.26 3156.89 L 4256.67 3157.1 L 4256.87 3157.71 L 4256.87 3159.75" fill="none"  stroke-width="0.6" c_note="note_name" /></g><g c_partid="part_pcbtext" c_etype="" c_origin="4250,3167" c_rotation="0" c_mirror="" id="gge126" locked="0" layerid="3" c_shapetype="group" ><path c_fontsize="4.5" c_fontfamily="" c_text="L1" d="M 4250 3162.46 L 4250 3166.75 M 4250 3166.75 L 4252.45 3166.75 M 4253.8 3163.28 L 4254.21 3163.07 L 4254.83 3162.46 L 4254.83 3166.75" fill="none"  stroke-width="0.6" c_note="note_pre" /></g><g c_partid="part_pcbtext" c_etype="" c_origin="4129.5,3059" c_rotation="0" c_mirror="" id="gge150" locked="0" layerid="3" c_shapetype="group" display="none"><path c_fontsize="4.5" c_fontfamily="" c_text="MPSA92" d="M 4129.5 3054.46 L 4129.5 3058.75 M 4129.5 3054.46 L 4131.14 3058.75 M 4132.77 3054.46 L 4131.14 3058.75 M 4132.77 3054.46 L 4132.77 3058.75 M 4134.12 3054.46 L 4134.12 3058.75 M 4134.12 3054.46 L 4135.96 3054.46 L 4136.58 3054.66 L 4136.78 3054.87 L 4136.99 3055.28 L 4136.99 3055.89 L 4136.78 3056.3 L 4136.58 3056.5 L 4135.96 3056.71 L 4134.12 3056.71 M 4141.2 3055.07 L 4140.79 3054.66 L 4140.18 3054.46 L 4139.36 3054.46 L 4138.75 3054.66 L 4138.34 3055.07 L 4138.34 3055.48 L 4138.54 3055.89 L 4138.75 3056.1 L 4139.15 3056.3 L 4140.38 3056.71 L 4140.79 3056.91 L 4141 3057.12 L 4141.2 3057.53 L 4141.2 3058.14 L 4140.79 3058.55 L 4140.18 3058.75 L 4139.36 3058.75 L 4138.75 3058.55 L 4138.34 3058.14 M 4144.19 3054.46 L 4142.55 3058.75 M 4144.19 3054.46 L 4145.82 3058.75 M 4143.16 3057.32 L 4145.21 3057.32 M 4149.83 3055.89 L 4149.63 3056.5 L 4149.22 3056.91 L 4148.6 3057.12 L 4148.4 3057.12 L 4147.79 3056.91 L 4147.38 3056.5 L 4147.17 3055.89 L 4147.17 3055.69 L 4147.38 3055.07 L 4147.79 3054.66 L 4148.4 3054.46 L 4148.6 3054.46 L 4149.22 3054.66 L 4149.63 3055.07 L 4149.83 3055.89 L 4149.83 3056.91 L 4149.63 3057.94 L 4149.22 3058.55 L 4148.6 3058.75 L 4148.2 3058.75 L 4147.58 3058.55 L 4147.38 3058.14 M 4151.39 3055.48 L 4151.39 3055.28 L 4151.59 3054.87 L 4151.8 3054.66 L 4152.2 3054.46 L 4153.02 3054.46 L 4153.43 3054.66 L 4153.64 3054.87 L 4153.84 3055.28 L 4153.84 3055.69 L 4153.64 3056.1 L 4153.23 3056.71 L 4151.18 3058.75 L 4154.05 3058.75" fill="none"  stroke-width="0.6" c_note="note_name" /></g><g c_partid="part_pcbtext" c_etype="" c_origin="4129.5,3066" c_rotation="0" c_mirror="" id="gge152" locked="0" layerid="3" c_shapetype="group" ><path c_fontsize="4.5" c_fontfamily="" c_text="Q1" d="M 4130.73 3061.46 L 4130.32 3061.66 L 4129.91 3062.07 L 4129.7 3062.48 L 4129.5 3063.1 L 4129.5 3064.12 L 4129.7 3064.73 L 4129.91 3065.14 L 4130.32 3065.55 L 4130.73 3065.75 L 4131.55 3065.75 L 4131.95 3065.55 L 4132.36 3065.14 L 4132.57 3064.73 L 4132.77 3064.12 L 4132.77 3063.1 L 4132.57 3062.48 L 4132.36 3062.07 L 4131.95 3061.66 L 4131.55 3061.46 L 4130.73 3061.46 M 4131.34 3064.94 L 4132.57 3066.16 M 4134.12 3062.28 L 4134.53 3062.07 L 4135.15 3061.46 L 4135.15 3065.75" fill="none"  stroke-width="0.6" c_note="note_pre" /></g><g c_partid="part_pcbtext" c_etype="" c_origin="4181.9212,3056.9803" c_rotation="0" c_mirror="" id="gge181" locked="0" layerid="3" c_shapetype="group" display="none"><path c_fontsize="4.5" c_fontfamily="" c_text="IRF740" d="M 4181.9212 3052.4403 L 4181.9212 3056.7303 M 4183.2712 3052.4403 L 4183.2712 3056.7303 M 4183.2712 3052.4403 L 4185.1112 3052.4403 L 4185.7212 3052.6403 L 4185.9312 3052.8503 L 4186.1312 3053.2603 L 4186.1312 3053.6703 L 4185.9312 3054.0803 L 4185.7212 3054.2803 L 4185.1112 3054.4803 L 4183.2712 3054.4803 M 4184.7012 3054.4803 L 4186.1312 3056.7303 M 4187.4812 3052.4403 L 4187.4812 3056.7303 M 4187.4812 3052.4403 L 4190.1412 3052.4403 M 4187.4812 3054.4803 L 4189.1212 3054.4803 M 4194.3612 3052.4403 L 4192.3112 3056.7303 M 4191.4912 3052.4403 L 4194.3612 3052.4403 M 4197.7512 3052.4403 L 4195.7112 3055.3003 L 4198.7712 3055.3003 M 4197.7512 3052.4403 L 4197.7512 3056.7303 M 4201.3512 3052.4403 L 4200.7412 3052.6403 L 4200.3312 3053.2603 L 4200.1212 3054.2803 L 4200.1212 3054.8903 L 4200.3312 3055.9203 L 4200.7412 3056.5303 L 4201.3512 3056.7303 L 4201.7612 3056.7303 L 4202.3712 3056.5303 L 4202.7812 3055.9203 L 4202.9912 3054.8903 L 4202.9912 3054.2803 L 4202.7812 3053.2603 L 4202.3712 3052.6403 L 4201.7612 3052.4403 L 4201.3512 3052.4403" fill="none"  stroke-width="0.6" c_note="note_name" /></g><g c_partid="part_pcbtext" c_etype="" c_origin="4181.9212,3063.9803" c_rotation="0" c_mirror="" id="gge183" locked="0" layerid="3" c_shapetype="group" ><path c_fontsize="4.5" c_fontfamily="" c_text="Q3" d="M 4183.1512 3059.4403 L 4182.7412 3059.6403 L 4182.3312 3060.0503 L 4182.1212 3060.4603 L 4181.9212 3061.0803 L 4181.9212 3062.1003 L 4182.1212 3062.7103 L 4182.3312 3063.1203 L 4182.7412 3063.5303 L 4183.1512 3063.7303 L 4183.9712 3063.7303 L 4184.3712 3063.5303 L 4184.7812 3063.1203 L 4184.9912 3062.7103 L 4185.1912 3062.1003 L 4185.1912 3061.0803 L 4184.9912 3060.4603 L 4184.7812 3060.0503 L 4184.3712 3059.6403 L 4183.9712 3059.4403 L 4183.1512 3059.4403 M 4183.7612 3062.9203 L 4184.9912 3064.1403 M 4186.9512 3059.4403 L 4189.2012 3059.4403 L 4187.9712 3061.0803 L 4188.5912 3061.0803 L 4189.0012 3061.2803 L 4189.2012 3061.4803 L 4189.4112 3062.1003 L 4189.4112 3062.5103 L 4189.2012 3063.1203 L 4188.7912 3063.5303 L 4188.1812 3063.7303 L 4187.5712 3063.7303 L 4186.9512 3063.5303 L 4186.7512 3063.3303 L 4186.5412 3062.9203" fill="none"  stroke-width="0.6" c_note="note_pre" /></g><g c_partid="part_pcbtext" c_etype="" c_origin="4170,3185" c_rotation="0" c_mirror="" id="gge213" locked="0" layerid="3" c_shapetype="group" display="none"><path c_fontsize="4.5" c_fontfamily="" c_text="1k" d="M 4170 3181.28 L 4170.41 3181.07 L 4171.02 3180.46 L 4171.02 3184.75 M 4172.37 3180.46 L 4172.37 3184.75 M 4174.42 3181.89 L 4172.37 3183.94 M 4173.19 3183.12 L 4174.62 3184.75" fill="none"  stroke-width="0.6" c_note="note_name" /></g><g c_partid="part_pcbtext" c_etype="" c_origin="4170,3192" c_rotation="0" c_mirror="" id="gge215" locked="0" layerid="3" c_shapetype="group" ><path c_fontsize="4.5" c_fontfamily="" c_text="R1" d="M 4170 3187.46 L 4170 3191.75 M 4170 3187.46 L 4171.84 3187.46 L 4172.45 3187.66 L 4172.66 3187.87 L 4172.86 3188.28 L 4172.86 3188.69 L 4172.66 3189.1 L 4172.45 3189.3 L 4171.84 3189.5 L 4170 3189.5 M 4171.43 3189.5 L 4172.86 3191.75 M 4174.21 3188.28 L 4174.62 3188.07 L 4175.24 3187.46 L 4175.24 3191.75" fill="none"  stroke-width="0.6" c_note="note_pre" /></g><g c_partid="part_pcbtext" c_etype="" c_origin="4087,3128" c_rotation="90" c_mirror="" id="gge241" locked="0" layerid="3" c_shapetype="group" display="none"><path c_fontsize="4.5" c_fontfamily="" c_text="1k" d="M 4083.28 3128 L 4083.07 3127.59 L 4082.46 3126.98 L 4086.75 3126.98 M 4082.46 3125.63 L 4086.75 3125.63 M 4083.89 3123.58 L 4085.94 3125.63 M 4085.12 3124.81 L 4086.75 3123.38" fill="none"  stroke-width="0.6" c_note="note_name" /></g><g c_partid="part_pcbtext" c_etype="" c_origin="4094,3128" c_rotation="90" c_mirror="" id="gge243" locked="0" layerid="3" c_shapetype="group" ><path c_fontsize="4.5" c_fontfamily="" c_text="R2" d="M 4089.46 3128 L 4093.75 3128 M 4089.46 3128 L 4089.46 3126.16 L 4089.66 3125.55 L 4089.87 3125.34 L 4090.28 3125.14 L 4090.69 3125.14 L 4091.1 3125.34 L 4091.3 3125.55 L 4091.5 3126.16 L 4091.5 3128 M 4091.5 3126.57 L 4093.75 3125.14 M 4090.48 3123.58 L 4090.28 3123.58 L 4089.87 3123.38 L 4089.66 3123.17 L 4089.46 3122.76 L 4089.46 3121.95 L 4089.66 3121.54 L 4089.87 3121.33 L 4090.28 3121.13 L 4090.69 3121.13 L 4091.1 3121.33 L 4091.71 3121.74 L 4093.75 3123.79 L 4093.75 3120.92" fill="none"  stroke-width="0.6" c_note="note_pre" /></g><g c_partid="part_pcbtext" c_etype="" c_origin="4107,3128" c_rotation="90" c_mirror="" id="gge269" locked="0" layerid="3" c_shapetype="group" display="none"><path c_fontsize="4.5" c_fontfamily="" c_text="1k" d="M 4103.28 3128 L 4103.07 3127.59 L 4102.46 3126.98 L 4106.75 3126.98 M 4102.46 3125.63 L 4106.75 3125.63 M 4103.89 3123.58 L 4105.94 3125.63 M 4105.12 3124.81 L 4106.75 3123.38" fill="none"  stroke-width="0.6" c_note="note_name" /></g><g c_partid="part_pcbtext" c_etype="" c_origin="4114,3128" c_rotation="90" c_mirror="" id="gge271" locked="0" layerid="3" c_shapetype="group" ><path c_fontsize="4.5" c_fontfamily="" c_text="R3" d="M 4109.46 3128 L 4113.75 3128 M 4109.46 3128 L 4109.46 3126.16 L 4109.66 3125.55 L 4109.87 3125.34 L 4110.28 3125.14 L 4110.69 3125.14 L 4111.1 3125.34 L 4111.3 3125.55 L 4111.5 3126.16 L 4111.5 3128 M 4111.5 3126.57 L 4113.75 3125.14 M 4109.46 3123.38 L 4109.46 3121.13 L 4111.1 3122.35 L 4111.1 3121.74 L 4111.3 3121.33 L 4111.5 3121.13 L 4112.12 3120.92 L 4112.53 3120.92 L 4113.14 3121.13 L 4113.55 3121.54 L 4113.75 3122.15 L 4113.75 3122.76 L 4113.55 3123.38 L 4113.35 3123.58 L 4112.94 3123.79" fill="none"  stroke-width="0.6" c_note="note_pre" /></g><g c_partid="part_pcbtext" c_etype="" c_origin="4165.3799,3185.79" c_rotation="0" c_mirror="" id="gge297" locked="0" layerid="3" c_shapetype="group" display="none"><path c_fontsize="4.5" c_fontfamily="" c_text="1k" d="M 4165.3799 3182.07 L 4165.7899 3181.86 L 4166.3999 3181.25 L 4166.3999 3185.54 M 4167.7499 3181.25 L 4167.7499 3185.54 M 4169.7999 3182.68 L 4167.7499 3184.73 M 4168.5699 3183.91 L 4169.9999 3185.54" fill="none"  stroke-width="0.6" c_note="note_name" /></g><g c_partid="part_pcbtext" c_etype="" c_origin="4170,3176" c_rotation="180" c_mirror="" id="gge299" locked="0" layerid="3" c_shapetype="group" ><path c_fontsize="4.5" c_fontfamily="" c_text="R4" d="M 4170 3180.54 L 4170 3176.25 M 4170 3180.54 L 4168.16 3180.54 L 4167.55 3180.34 L 4167.34 3180.13 L 4167.14 3179.72 L 4167.14 3179.31 L 4167.34 3178.9 L 4167.55 3178.7 L 4168.16 3178.5 L 4170 3178.5 M 4168.57 3178.5 L 4167.14 3176.25 M 4163.74 3180.54 L 4165.79 3177.68 L 4162.72 3177.68 M 4163.74 3180.54 L 4163.74 3176.25" fill="none"  stroke-width="0.6" c_note="note_pre" /></g><g c_partid="part_pcbtext" c_etype="" c_origin="4115.3799,3185.79" c_rotation="0" c_mirror="" id="gge325" locked="0" layerid="3" c_shapetype="group" display="none"><path c_fontsize="4.5" c_fontfamily="" c_text="1k" d="M 4115.3799 3182.07 L 4115.7899 3181.86 L 4116.3999 3181.25 L 4116.3999 3185.54 M 4117.7499 3181.25 L 4117.7499 3185.54 M 4119.7999 3182.68 L 4117.7499 3184.73 M 4118.5699 3183.91 L 4119.9999 3185.54" fill="none"  stroke-width="0.6" c_note="note_name" /></g><g c_partid="part_pcbtext" c_etype="" c_origin="4120,3174" c_rotation="180" c_mirror="" id="gge327" locked="0" layerid="3" c_shapetype="group" ><path c_fontsize="4.5" c_fontfamily="" c_text="R6" d="M 4120 3178.54 L 4120 3174.25 M 4120 3178.54 L 4118.16 3178.54 L 4117.55 3178.34 L 4117.34 3178.13 L 4117.14 3177.72 L 4117.14 3177.31 L 4117.34 3176.9 L 4117.55 3176.7 L 4118.16 3176.5 L 4120 3176.5 M 4118.57 3176.5 L 4117.14 3174.25 M 4113.33 3177.93 L 4113.54 3178.34 L 4114.15 3178.54 L 4114.56 3178.54 L 4115.17 3178.34 L 4115.58 3177.72 L 4115.79 3176.7 L 4115.79 3175.68 L 4115.58 3174.86 L 4115.17 3174.45 L 4114.56 3174.25 L 4114.35 3174.25 L 4113.74 3174.45 L 4113.33 3174.86 L 4113.13 3175.47 L 4113.13 3175.68 L 4113.33 3176.29 L 4113.74 3176.7 L 4114.35 3176.9 L 4114.56 3176.9 L 4115.17 3176.7 L 4115.58 3176.29 L 4115.79 3175.68" fill="none"  stroke-width="0.6" c_note="note_pre" /></g><g c_partid="part_pcbtext" c_etype="" c_origin="4158.5,3091" c_rotation="0" c_mirror="" id="gge353" locked="0" layerid="3" c_shapetype="group" display="none"><path c_fontsize="4.5" c_fontfamily="" c_text="MC34063AN" d="M 4158.5 3086.46 L 4158.5 3090.75 M 4158.5 3086.46 L 4160.14 3090.75 M 4161.77 3086.46 L 4160.14 3090.75 M 4161.77 3086.46 L 4161.77 3090.75 M 4166.19 3087.48 L 4165.99 3087.07 L 4165.58 3086.66 L 4165.17 3086.46 L 4164.35 3086.46 L 4163.94 3086.66 L 4163.53 3087.07 L 4163.33 3087.48 L 4163.12 3088.1 L 4163.12 3089.12 L 4163.33 3089.73 L 4163.53 3090.14 L 4163.94 3090.55 L 4164.35 3090.75 L 4165.17 3090.75 L 4165.58 3090.55 L 4165.99 3090.14 L 4166.19 3089.73 M 4167.95 3086.46 L 4170.2 3086.46 L 4168.97 3088.1 L 4169.59 3088.1 L 4170 3088.3 L 4170.2 3088.5 L 4170.4 3089.12 L 4170.4 3089.53 L 4170.2 3090.14 L 4169.79 3090.55 L 4169.18 3090.75 L 4168.56 3090.75 L 4167.95 3090.55 L 4167.75 3090.35 L 4167.54 3089.94 M 4173.8 3086.46 L 4171.75 3089.32 L 4174.82 3089.32 M 4173.8 3086.46 L 4173.8 3090.75 M 4177.4 3086.46 L 4176.79 3086.66 L 4176.38 3087.28 L 4176.17 3088.3 L 4176.17 3088.91 L 4176.38 3089.94 L 4176.79 3090.55 L 4177.4 3090.75 L 4177.81 3090.75 L 4178.42 3090.55 L 4178.83 3089.94 L 4179.04 3088.91 L 4179.04 3088.3 L 4178.83 3087.28 L 4178.42 3086.66 L 4177.81 3086.46 L 4177.4 3086.46 M 4182.84 3087.07 L 4182.64 3086.66 L 4182.02 3086.46 L 4181.61 3086.46 L 4181 3086.66 L 4180.59 3087.28 L 4180.39 3088.3 L 4180.39 3089.32 L 4180.59 3090.14 L 4181 3090.55 L 4181.61 3090.75 L 4181.82 3090.75 L 4182.43 3090.55 L 4182.84 3090.14 L 4183.05 3089.53 L 4183.05 3089.32 L 4182.84 3088.71 L 4182.43 3088.3 L 4181.82 3088.1 L 4181.61 3088.1 L 4181 3088.3 L 4180.59 3088.71 L 4180.39 3089.32 M 4184.8 3086.46 L 4187.05 3086.46 L 4185.83 3088.1 L 4186.44 3088.1 L 4186.85 3088.3 L 4187.05 3088.5 L 4187.26 3089.12 L 4187.26 3089.53 L 4187.05 3090.14 L 4186.65 3090.55 L 4186.03 3090.75 L 4185.42 3090.75 L 4184.8 3090.55 L 4184.6 3090.35 L 4184.4 3089.94 M 4190.25 3086.46 L 4188.61 3090.75 M 4190.25 3086.46 L 4191.88 3090.75 M 4189.22 3089.32 L 4191.27 3089.32 M 4193.23 3086.46 L 4193.23 3090.75 M 4193.23 3086.46 L 4196.1 3090.75 M 4196.1 3086.46 L 4196.1 3090.75" fill="none"  stroke-width="0.6" c_note="note_name" /></g><g c_partid="part_pcbtext" c_etype="" c_origin="4158.5,3098" c_rotation="0" c_mirror="" id="gge355" locked="0" layerid="3" c_shapetype="group" ><path c_fontsize="4.5" c_fontfamily="" c_text="U1" d="M 4158.5 3093.46 L 4158.5 3096.53 L 4158.7 3097.14 L 4159.11 3097.55 L 4159.73 3097.75 L 4160.14 3097.75 L 4160.75 3097.55 L 4161.16 3097.14 L 4161.36 3096.53 L 4161.36 3093.46 M 4162.71 3094.28 L 4163.12 3094.07 L 4163.74 3093.46 L 4163.74 3097.75" fill="none"  stroke-width="0.6" c_note="note_pre" /></g><g c_partid="part_pcbtext" c_etype="" c_origin="4231.685,3068.5" c_rotation="90" c_mirror="" id="gge424" locked="0" layerid="3" c_shapetype="group" display="none"><path c_fontsize="4.5" c_fontfamily="" c_text="2 pin terminal" d="M 4228.165 3068.3 L 4227.965 3068.3 L 4227.555 3068.09 L 4227.345 3067.89 L 4227.145 3067.48 L 4227.145 3066.66 L 4227.345 3066.25 L 4227.555 3066.05 L 4227.965 3065.84 L 4228.375 3065.84 L 4228.785 3066.05 L 4229.395 3066.45 L 4231.435 3068.5 L 4231.435 3065.64 M 4228.575 3061.14 L 4232.875 3061.14 M 4229.185 3061.14 L 4228.785 3060.73 L 4228.575 3060.32 L 4228.575 3059.7 L 4228.785 3059.3 L 4229.185 3058.89 L 4229.805 3058.68 L 4230.215 3058.68 L 4230.825 3058.89 L 4231.235 3059.3 L 4231.435 3059.7 L 4231.435 3060.32 L 4231.235 3060.73 L 4230.825 3061.14 M 4227.145 3057.33 L 4227.345 3057.13 L 4227.145 3056.92 L 4226.935 3057.13 L 4227.145 3057.33 M 4228.575 3057.13 L 4231.435 3057.13 M 4228.575 3055.57 L 4231.435 3055.57 M 4229.395 3055.57 L 4228.785 3054.96 L 4228.575 3054.55 L 4228.575 3053.94 L 4228.785 3053.53 L 4229.395 3053.32 L 4231.435 3053.32 M 4227.145 3048.21 L 4230.625 3048.21 L 4231.235 3048 L 4231.435 3047.6 L 4231.435 3047.19 M 4228.575 3048.82 L 4228.575 3047.39 M 4229.805 3045.84 L 4229.805 3043.38 L 4229.395 3043.38 L 4228.985 3043.59 L 4228.785 3043.79 L 4228.575 3044.2 L 4228.575 3044.81 L 4228.785 3045.22 L 4229.185 3045.63 L 4229.805 3045.84 L 4230.215 3045.84 L 4230.825 3045.63 L 4231.235 3045.22 L 4231.435 3044.81 L 4231.435 3044.2 L 4231.235 3043.79 L 4230.825 3043.38 M 4228.575 3042.03 L 4231.435 3042.03 M 4229.805 3042.03 L 4229.185 3041.83 L 4228.785 3041.42 L 4228.575 3041.01 L 4228.575 3040.4 M 4228.575 3039.05 L 4231.435 3039.05 M 4229.395 3039.05 L 4228.785 3038.43 L 4228.575 3038.02 L 4228.575 3037.41 L 4228.785 3037 L 4229.395 3036.8 L 4231.435 3036.8 M 4229.395 3036.8 L 4228.785 3036.18 L 4228.575 3035.77 L 4228.575 3035.16 L 4228.785 3034.75 L 4229.395 3034.55 L 4231.435 3034.55 M 4227.145 3033.2 L 4227.345 3032.99 L 4227.145 3032.79 L 4226.935 3032.99 L 4227.145 3033.2 M 4228.575 3032.99 L 4231.435 3032.99 M 4228.575 3031.44 L 4231.435 3031.44 M 4229.395 3031.44 L 4228.785 3030.82 L 4228.575 3030.41 L 4228.575 3029.8 L 4228.785 3029.39 L 4229.395 3029.19 L 4231.435 3029.19 M 4228.575 3025.38 L 4231.435 3025.38 M 4229.185 3025.38 L 4228.785 3025.79 L 4228.575 3026.2 L 4228.575 3026.81 L 4228.785 3027.22 L 4229.185 3027.63 L 4229.805 3027.84 L 4230.215 3027.84 L 4230.825 3027.63 L 4231.235 3027.22 L 4231.435 3026.81 L 4231.435 3026.2 L 4231.235 3025.79 L 4230.825 3025.38 M 4227.145 3024.03 L 4231.435 3024.03" fill="none"  stroke-width="0.6" c_note="note_name" /></g><g c_partid="part_pcbtext" c_etype="" c_origin="4238.685,3068.5" c_rotation="90" c_mirror="" id="gge426" locked="0" layerid="3" c_shapetype="group" ><path c_fontsize="4.5" c_fontfamily="" c_text="U3" d="M 4234.145 3068.5 L 4237.215 3068.5 L 4237.825 3068.3 L 4238.235 3067.89 L 4238.435 3067.27 L 4238.435 3066.86 L 4238.235 3066.25 L 4237.825 3065.84 L 4237.215 3065.64 L 4234.145 3065.64 M 4234.145 3063.88 L 4234.145 3061.63 L 4235.785 3062.85 L 4235.785 3062.24 L 4235.985 3061.83 L 4236.185 3061.63 L 4236.805 3061.42 L 4237.215 3061.42 L 4237.825 3061.63 L 4238.235 3062.04 L 4238.435 3062.65 L 4238.435 3063.26 L 4238.235 3063.88 L 4238.035 3064.08 L 4237.625 3064.29" fill="none"  stroke-width="0.6" c_note="note_pre" /></g><g c_partid="part_pcbtext" c_etype="" c_origin="4051.685,3188.5002" c_rotation="90" c_mirror="" id="gge441" locked="0" layerid="3" c_shapetype="group" display="none"><path c_fontsize="4.5" c_fontfamily="" c_text="2 pin terminal" d="M 4048.165 3188.3002 L 4047.965 3188.3002 L 4047.555 3188.0902 L 4047.345 3187.8902 L 4047.145 3187.4802 L 4047.145 3186.6602 L 4047.345 3186.2502 L 4047.555 3186.0502 L 4047.965 3185.8402 L 4048.375 3185.8402 L 4048.785 3186.0502 L 4049.395 3186.4502 L 4051.435 3188.5002 L 4051.435 3185.6402 M 4048.575 3181.1402 L 4052.875 3181.1402 M 4049.185 3181.1402 L 4048.785 3180.7302 L 4048.575 3180.3202 L 4048.575 3179.7002 L 4048.785 3179.3002 L 4049.185 3178.8902 L 4049.805 3178.6802 L 4050.215 3178.6802 L 4050.825 3178.8902 L 4051.235 3179.3002 L 4051.435 3179.7002 L 4051.435 3180.3202 L 4051.235 3180.7302 L 4050.825 3181.1402 M 4047.145 3177.3302 L 4047.345 3177.1302 L 4047.145 3176.9202 L 4046.935 3177.1302 L 4047.145 3177.3302 M 4048.575 3177.1302 L 4051.435 3177.1302 M 4048.575 3175.5702 L 4051.435 3175.5702 M 4049.395 3175.5702 L 4048.785 3174.9602 L 4048.575 3174.5502 L 4048.575 3173.9402 L 4048.785 3173.5302 L 4049.395 3173.3202 L 4051.435 3173.3202 M 4047.145 3168.2102 L 4050.625 3168.2102 L 4051.235 3168.0002 L 4051.435 3167.6002 L 4051.435 3167.1902 M 4048.575 3168.8202 L 4048.575 3167.3902 M 4049.805 3165.8402 L 4049.805 3163.3802 L 4049.395 3163.3802 L 4048.985 3163.5902 L 4048.785 3163.7902 L 4048.575 3164.2002 L 4048.575 3164.8102 L 4048.785 3165.2202 L 4049.185 3165.6302 L 4049.805 3165.8402 L 4050.215 3165.8402 L 4050.825 3165.6302 L 4051.235 3165.2202 L 4051.435 3164.8102 L 4051.435 3164.2002 L 4051.235 3163.7902 L 4050.825 3163.3802 M 4048.575 3162.0302 L 4051.435 3162.0302 M 4049.805 3162.0302 L 4049.185 3161.8302 L 4048.785 3161.4202 L 4048.575 3161.0102 L 4048.575 3160.4002 M 4048.575 3159.0502 L 4051.435 3159.0502 M 4049.395 3159.0502 L 4048.785 3158.4302 L 4048.575 3158.0202 L 4048.575 3157.4102 L 4048.785 3157.0002 L 4049.395 3156.8002 L 4051.435 3156.8002 M 4049.395 3156.8002 L 4048.785 3156.1802 L 4048.575 3155.7702 L 4048.575 3155.1602 L 4048.785 3154.7502 L 4049.395 3154.5502 L 4051.435 3154.5502 M 4047.145 3153.2002 L 4047.345 3152.9902 L 4047.145 3152.7902 L 4046.935 3152.9902 L 4047.145 3153.2002 M 4048.575 3152.9902 L 4051.435 3152.9902 M 4048.575 3151.4402 L 4051.435 3151.4402 M 4049.395 3151.4402 L 4048.785 3150.8202 L 4048.575 3150.4102 L 4048.575 3149.8002 L 4048.785 3149.3902 L 4049.395 3149.1902 L 4051.435 3149.1902 M 4048.575 3145.3802 L 4051.435 3145.3802 M 4049.185 3145.3802 L 4048.785 3145.7902 L 4048.575 3146.2002 L 4048.575 3146.8102 L 4048.785 3147.2202 L 4049.185 3147.6302 L 4049.805 3147.8402 L 4050.215 3147.8402 L 4050.825 3147.6302 L 4051.235 3147.2202 L 4051.435 3146.8102 L 4051.435 3146.2002 L 4051.235 3145.7902 L 4050.825 3145.3802 M 4047.145 3144.0302 L 4051.435 3144.0302" fill="none"  stroke-width="0.6" c_note="note_name" /></g><g c_partid="part_pcbtext" c_etype="" c_origin="4058.685,3188.5" c_rotation="90" c_mirror="" id="gge443" locked="0" layerid="3" c_shapetype="group" ><path c_fontsize="4.5" c_fontfamily="" c_text="U4" d="M 4054.145 3188.5 L 4057.215 3188.5 L 4057.825 3188.3 L 4058.235 3187.89 L 4058.435 3187.27 L 4058.435 3186.86 L 4058.235 3186.25 L 4057.825 3185.84 L 4057.215 3185.64 L 4054.145 3185.64 M 4054.145 3182.24 L 4057.005 3184.29 L 4057.005 3181.22 M 4054.145 3182.24 L 4058.435 3182.24" fill="none"  stroke-width="0.6" c_note="note_pre" /></g><path d="M 4079.9 3053.39 A 24.6063 24.6063 0 1 0 4080.33 3053.4" locked="0"  fill="none" stroke-width="1" c_helper_type="arc2" net="" layerid="3" id="gge31" /><path d="M 4137.8915 3083.2993 A 9.5 9.5 0 1 0 4122.1081 3083.2985" locked="0"  fill="none" stroke-width="1" c_helper_type="arc2" net="" layerid="3" id="gge155" /><path d="M 4171.5158 3087.5275 A 0.7874 0.7874 0 1 0 4171.5258 3087.5275" locked="0"  fill="none" stroke-width="1.5748" c_helper_type="arc2" net="" layerid="3" id="gge193" /><path d="M 4140.5512 3120.5197 A 2.5 2.5 0 0 0 4140.5512 3115.5197" locked="0"  fill="none" stroke-width="0.7874" c_helper_type="arc2" net="" layerid="3" id="gge358" /><path d="M 4139.39 3133 A 0.4921 0.4921 0 1 0 4139.39 3132.99" locked="0"  fill="none" stroke-width="0.98425" c_helper_type="arc2" net="" layerid="3" id="gge359" /><path d="M 4142.48 3124.5 A 1.1811 1.1811 0 1 0 4142.48 3124.48" locked="0"  fill="none" stroke-width="2.3622" c_helper_type="arc2" net="" layerid="3" id="gge360" /><circle cx="4216.5002" cy="3072.4996" r="9.843" stroke-width="1.1811" fill="none" layerid="3" id="gge9" locked="0"  /><path d="M 4222.9998 3079.563 A 8.99 8.99 0 0 1 4209.9998 3079.563 Z " stroke-width="0"   net="" type="solid" layerid="3" id="gge10" locked="0" c_teardrop="" c_targetpad="" c_targetwire="" /><path d="M 4094.5 3058.3 L 4094.5 3097.4 L 4094.7 3097.6 L 4098.9 3092.7 L 4099.3 3092.5 L 4100.7 3090.2 L 4101.4 3088.7 L 4102.5 3087.1 L 4102.9 3084.7 L 4103.6 3084 L 4103.6 3080.8 L 4104.206 3080.194 L 4104.206 3076.294 L 4104.3 3076.2 L 4103.9 3075.8 L 4103.6 3072.4 L 4103 3071.6 L 4102.5 3068.7 L 4101.2 3066.9 L 4100.8 3065.3 L 4099.1 3063.2 L 4099.1 3063.1 Z" stroke-width="0"   net="" type="solid" layerid="3" id="gge32" locked="0" c_teardrop="" c_targetpad="" c_targetwire="" /><polyline points="4051.45 3046.39 4291.61 3046.39 4291.61 3207.81 4050 3207.81 4050 3046.39 4051.45 3046.39" stroke-width="1"  stroke-linecap="round" fill="none" layerid="10" net="" id="gge487" locked="0" /></svg>